<?xml version="1.0" encoding="utf-8"?>
<!-- Generator: Adobe Illustrator 26.3.1, SVG Export Plug-In . SVG Version: 6.00 Build 0)  -->
<svg version="1.1" xmlns="http://www.w3.org/2000/svg" xmlns:xlink="http://www.w3.org/1999/xlink" x="0px" y="0px"
	 viewBox="0 0 4174.8 1509.5" style="enable-background:new 0 0 4174.8 1509.5;" xml:space="preserve">
<style type="text/css">
	.st0{fill:#7E104E;}
	.st1{fill:#A7A9AC;}
	.st2{fill:#FFFFFF;}
	.st3{fill:#F7941D;}
</style>
<g id="Layer_1">
</g>
<g id="Isolation_Mode">
	<g>
		<path class="st0" d="M1509.6,756.2c0,17.7-0.5,35.4-1.8,52.8c0,1.4-0.2,2.9-0.3,4.3c-0.5,6.8-1.1,13.6-1.8,20.4
			c-26.9,263-189,486.1-415.9,598.2c-24.1,11.9-49,22.6-74.5,32c-6,2.2-12.1,4.3-18.2,6.4c-10.5,3.5-21.1,6.8-31.8,9.9
			c-6.6,1.9-13.2,3.7-19.9,5.4c-60.3,15.6-123.7,23.9-188.9,23.9c-416,0-753.2-337.2-753.2-753.2C3.2,340.3,340.4,3,756.4,3
			c366.9,0,672.5,262.4,739.5,609.7C1504.9,659.1,1509.6,707.2,1509.6,756.2z"/>
		<path class="st1" d="M1505.6,833.6c-26.9,263-189,486.1-415.9,598.2c-24.1,11.9-49,22.6-74.5,32c-6,2.2-12.1,4.3-18.2,6.4
			c-10.5,3.5-21.1,6.8-31.8,9.9l-472.7-420.8l361.5-692.9l39.7-22.8l12.4,34l183.4,76.4L1505.6,833.6z"/>
		<path class="st2" d="M1158.2,756.2c0,221.9-179.9,401.8-401.8,401.8c-221.9,0-401.8-179.9-401.8-401.8
			c0-221.9,179.9-401.8,401.8-401.8c33.7,0,66.4,4.2,97.7,12c0.8,0.2,1.6,0.4,2.4,0.6c0,0-5.8,19.9-8.8,28.3
			c-3.5,9.7-8,23-13.5,40.8c-9.1,29.1-21,69.4-35.5,120C774,642.1,750.2,729.1,750,730l-13.1,48l420.6-44.5
			C1158,741,1158.2,748.6,1158.2,756.2z"/>
		<path class="st3" d="M1188.1,704.7l-415.7,44c0,0,116.7-389.7,121.4-405C1061.7,378,1188.1,526.6,1188.1,704.7z"/>
	</g>
	<g>
		<g>
			<g>
				<path class="st0" d="M1796.8,642.2h191.9v104.1h-336v-97.6l189.9-260.7h-189.9V284.7h336v97.6L1796.8,642.2z"/>
				<path class="st0" d="M2160.3,720.5c-36.2-20.3-64.9-48.5-86.1-84.5c-21.2-36-31.8-76.7-31.8-122.1c0-45.4,10.6-86.1,31.8-122.1
					c21.2-36,49.9-64.1,86.1-84.2c36.2-20.1,76-30.1,119.2-30.1c43.7,0,83.5,10,119.5,30.1c36,20.1,64.5,48.1,85.5,84.2
					c21,36,31.4,76.7,31.4,122.1c0,45.4-10.5,86.1-31.4,122.1c-21,36-49.6,64.2-85.8,84.5c-36.2,20.3-76,30.5-119.2,30.5
					S2196.5,740.8,2160.3,720.5z M2357.1,599.7c19-21.4,28.5-50,28.5-85.8c0-36.7-9.5-65.6-28.5-86.8c-19-21.2-44.9-31.8-77.6-31.8
					c-33.2,0-59.2,10.6-77.9,31.8c-18.8,21.2-28.2,50.1-28.2,86.8c0,36.2,9.4,64.9,28.2,86.1c18.8,21.2,44.7,31.8,77.9,31.8
					C2312.2,631.8,2338.1,621.1,2357.1,599.7z"/>
				<path class="st0" d="M3112.5,284.7v461.7h-128.4V491.6l-87.1,254.8h-107.4l-87.8-256.7v256.7h-128.4V284.7h155.2l115.9,300
					l113.3-300H3112.5z"/>
				<path class="st0" d="M3545.1,549.6c15.9,20.7,23.9,44.4,23.9,71.1c0,39.3-13.5,70.1-40.6,92.3c-27.1,22.3-65.1,33.4-114,33.4
					h-228.6V284.7h221.4c47.2,0,84.2,10.5,111,31.4s40.3,50.4,40.3,88.4c0,27.1-7.1,49.7-21.3,67.8c-14.2,18.1-33.1,30.5-56.7,37
					C3507.7,515.4,3529.2,528.8,3545.1,549.6z M3314.2,468h64.8c32.3,0,48.5-13.3,48.5-40c0-27.5-16.2-41.3-48.5-41.3h-64.8V468z
					 M3437.4,602.3c0-14-4.3-24.7-12.8-32.1c-8.5-7.4-20.6-11.1-36.3-11.1h-74v83.8h74.7C3421.2,642.9,3437.4,629.4,3437.4,602.3z"
					/>
				<path class="st0" d="M3753.7,284.7v461.7h-128.4V284.7H3753.7z"/>
				<path class="st0" d="M4174.8,284.7v102.2h-123.1v359.6h-128.4V386.8h-121.8V284.7H4174.8z"/>
			</g>
		</g>
		<g>
			<path class="st3" d="M1823.3,885.7v26.7h-68.6v225.1h-32.9V912.4h-69v-26.7H1823.3z"/>
			<path class="st3" d="M1863.7,984.5c8.2-15.3,19.4-27.2,33.8-35.6c14.3-8.4,30.3-12.6,47.9-12.6c17.3,0,32.4,3.7,45.2,11.2
				c12.8,7.5,22.3,16.9,28.5,28.2v-36.1h33.2v198h-33.2v-36.9c-6.5,11.6-16.2,21.1-29.1,28.7c-12.9,7.6-27.9,11.4-45,11.4
				c-17.6,0-33.5-4.3-47.7-13c-14.2-8.7-25.4-20.8-33.6-36.5c-8.2-15.7-12.3-33.5-12.3-53.5
				C1851.4,1017.5,1855.5,999.8,1863.7,984.5z M2010,999.1c-6-11.1-14.2-19.6-24.4-25.5c-10.2-5.9-21.5-8.9-33.8-8.9
				c-12.3,0-23.5,2.9-33.6,8.7c-10.1,5.8-18.2,14.2-24.2,25.3c-6,11.1-9,24.1-9,39c0,15.2,3,28.4,9,39.6c6,11.2,14.1,19.8,24.2,25.7
				c10.1,5.9,21.3,8.9,33.6,8.9c12.3,0,23.5-2.9,33.8-8.9c10.2-5.9,18.4-14.5,24.4-25.7c6-11.2,9-24.3,9-39.2
				C2019.1,1023.2,2016,1010.2,2010,999.1z"/>
			<path class="st3" d="M2137.2,1133c-12-5.2-21.6-12.4-28.5-21.7c-7-9.3-10.8-19.9-11.6-32h34c1,9.9,5.6,17.9,13.9,24.2
				c8.3,6.3,19.2,9.4,32.7,9.4c12.5,0,22.4-2.8,29.6-8.3c7.2-5.5,10.8-12.5,10.8-21c0-8.7-3.9-15.1-11.6-19.3
				c-7.7-4.2-19.6-8.4-35.8-12.5c-14.7-3.8-26.7-7.8-35.9-11.7c-9.3-4-17.2-9.9-23.8-17.7c-6.6-7.8-9.9-18.1-9.9-30.9
				c0-10.1,3-19.4,9-27.8c6-8.4,14.6-15.1,25.7-20.1c11.1-4.9,23.7-7.4,37.9-7.4c21.9,0,39.6,5.5,53.1,16.6
				c13.5,11.1,20.7,26.3,21.7,45.5h-32.9c-0.7-10.4-4.9-18.7-12.5-24.9c-7.6-6.3-17.8-9.4-30.5-9.4c-11.8,0-21.2,2.5-28.2,7.6
				c-7,5.1-10.5,11.7-10.5,19.9c0,6.5,2.1,11.9,6.3,16.1c4.2,4.2,9.5,7.6,15.9,10.1c6.4,2.5,15.2,5.4,26.6,8.5
				c14.2,3.9,25.8,7.6,34.7,11.4c8.9,3.7,16.6,9.3,22.9,16.8c6.4,7.5,9.7,17.2,9.9,29.3c0,10.8-3,20.6-9,29.3
				c-6,8.7-14.5,15.5-25.5,20.4c-11,4.9-23.5,7.4-37.8,7.4C2162.8,1140.7,2149.2,1138.1,2137.2,1133z"/>
			<path class="st3" d="M2407.1,1137.5l-77.7-87.4v87.4h-32.9V870.1h32.9v157.2l76.2-87.8h45.9l-93.2,98.6l93.6,99.4H2407.1z"/>
			<path class="st3" d="M2834.5,887.5v250h-32.9V951.1l-83.1,186.4h-23.1l-83.5-186.8v186.8H2579v-250h35.4l92.5,206.7l92.5-206.7
				H2834.5z"/>
			<path class="st3" d="M2890.1,984.5c8.2-15.3,19.4-27.2,33.8-35.6c14.3-8.4,30.3-12.6,47.9-12.6c17.3,0,32.4,3.7,45.2,11.2
				c12.8,7.5,22.3,16.9,28.5,28.2v-36.1h33.2v198h-33.2v-36.9c-6.5,11.6-16.2,21.1-29.1,28.7c-12.9,7.6-27.9,11.4-45,11.4
				c-17.6,0-33.5-4.3-47.7-13c-14.2-8.7-25.4-20.8-33.6-36.5c-8.2-15.7-12.3-33.5-12.3-53.5
				C2877.8,1017.5,2881.9,999.8,2890.1,984.5z M3036.4,999.1c-6-11.1-14.2-19.6-24.4-25.5c-10.2-5.9-21.5-8.9-33.8-8.9
				s-23.5,2.9-33.6,8.7c-10.1,5.8-18.2,14.2-24.2,25.3c-6,11.1-9,24.1-9,39c0,15.2,3,28.4,9,39.6c6,11.2,14.1,19.8,24.2,25.7
				c10.1,5.9,21.3,8.9,33.6,8.9s23.5-2.9,33.8-8.9c10.2-5.9,18.4-14.5,24.4-25.7c6-11.2,9-24.3,9-39.2
				C3045.4,1023.2,3042.4,1010.2,3036.4,999.1z"/>
			<path class="st3" d="M3289.3,957.7c14.9,14.6,22.4,35.6,22.4,63v116.7h-32.5v-112c0-19.7-4.9-34.9-14.8-45.3
				c-9.9-10.5-23.4-15.7-40.5-15.7c-17.3,0-31.1,5.4-41.4,16.3c-10.2,10.8-15.4,26.6-15.4,47.3v109.5h-32.9v-198h32.9v28.2
				c6.5-10.1,15.4-17.9,26.6-23.5c11.2-5.5,23.5-8.3,37-8.3C3254.9,935.9,3274.4,943.2,3289.3,957.7z"/>
			<path class="st3" d="M3365.5,984.5c8.2-15.3,19.4-27.2,33.8-35.6c14.3-8.4,30.3-12.6,47.9-12.6c17.3,0,32.4,3.7,45.2,11.2
				c12.8,7.5,22.3,16.9,28.5,28.2v-36.1h33.2v198h-33.2v-36.9c-6.5,11.6-16.2,21.1-29.1,28.7c-12.9,7.6-27.9,11.4-45,11.4
				c-17.6,0-33.5-4.3-47.7-13c-14.2-8.7-25.4-20.8-33.6-36.5c-8.2-15.7-12.3-33.5-12.3-53.5
				C3353.3,1017.5,3357.4,999.8,3365.5,984.5z M3511.9,999.1c-6-11.1-14.2-19.6-24.4-25.5c-10.2-5.9-21.5-8.9-33.8-8.9
				c-12.3,0-23.5,2.9-33.6,8.7c-10.1,5.8-18.2,14.2-24.2,25.3c-6,11.1-9,24.1-9,39c0,15.2,3,28.4,9,39.6c6,11.2,14.1,19.8,24.2,25.7
				c10.1,5.9,21.3,8.9,33.6,8.9c12.3,0,23.5-2.9,33.8-8.9c10.2-5.9,18.4-14.5,24.4-25.7c6-11.2,9-24.3,9-39.2
				C3520.9,1023.2,3517.9,1010.2,3511.9,999.1z"/>
			<path class="st3" d="M3736.4,947.5c12.9,7.5,22.5,16.9,28.7,28.2v-36.1h33.2v202.3c0,18.1-3.9,34.1-11.6,48.2
				c-7.7,14.1-18.7,25.1-33.1,33.1c-14.3,7.9-31,11.9-50,11.9c-26,0-47.7-6.1-65-18.4c-17.3-12.3-27.6-29-30.7-50.2h32.5
				c3.6,12,11.1,21.7,22.4,29.1c11.3,7.3,24.9,11,40.8,11c18.1,0,32.8-5.7,44.3-17c11.4-11.3,17.2-27.2,17.2-47.7v-41.5
				c-6.5,11.6-16.1,21.2-28.9,28.9c-12.8,7.7-27.7,11.6-44.8,11.6c-17.6,0-33.5-4.3-47.9-13c-14.3-8.7-25.6-20.8-33.8-36.5
				c-8.2-15.7-12.3-33.5-12.3-53.5c0-20.2,4.1-38,12.3-53.3c8.2-15.3,19.4-27.2,33.8-35.6c14.3-8.4,30.3-12.6,47.9-12.6
				C3708.5,936.3,3723.5,940,3736.4,947.5z M3756.1,999.1c-6-11.1-14.2-19.6-24.4-25.5c-10.2-5.9-21.5-8.9-33.8-8.9
				c-12.3,0-23.5,2.9-33.6,8.7c-10.1,5.8-18.2,14.2-24.2,25.3c-6,11.1-9,24.1-9,39c0,15.2,3,28.4,9,39.6c6,11.2,14.1,19.8,24.2,25.7
				c10.1,5.9,21.3,8.9,33.6,8.9c12.3,0,23.5-2.9,33.8-8.9c10.2-5.9,18.4-14.5,24.4-25.7c6-11.2,9-24.3,9-39.2
				C3765.1,1023.2,3762.1,1010.2,3756.1,999.1z"/>
			<path class="st3" d="M4033.5,1050.8h-158.2c1.2,19.5,7.9,34.7,20.1,45.7c12.2,11,26.9,16.4,44.3,16.4c14.2,0,26.1-3.3,35.6-9.9
				c9.5-6.6,16.2-15.5,20.1-26.6h35.4c-5.3,19-15.9,34.5-31.8,46.4c-15.9,11.9-35.6,17.9-59.3,17.9c-18.8,0-35.6-4.2-50.4-12.6
				c-14.8-8.4-26.4-20.4-34.9-35.9c-8.4-15.5-12.6-33.5-12.6-54c0-20.5,4.1-38.4,12.3-53.8c8.2-15.4,19.7-27.3,34.5-35.6
				c14.8-8.3,31.8-12.5,51.1-12.5c18.8,0,35.4,4.1,49.9,12.3c14.5,8.2,25.6,19.5,33.4,33.8c7.8,14.3,11.7,30.5,11.7,48.6
				C4034.6,1037.2,4034.3,1043.8,4033.5,1050.8z M3992.4,991.7c-5.5-9-13.1-15.9-22.6-20.6c-9.5-4.7-20.1-7-31.6-7
				c-16.6,0-30.8,5.3-42.4,15.9c-11.7,10.6-18.4,25.3-20.1,44.1h125C4000.7,1011.5,3997.9,1000.7,3992.4,991.7z"/>
			<path class="st3" d="M4135.6,945.3c10.7-6.3,23.8-9.4,39.2-9.4v34h-8.7c-36.9,0-55.3,20-55.3,60v107.7H4078v-198h32.9v32.2
				C4116.6,960.3,4124.9,951.6,4135.6,945.3z"/>
		</g>
	</g>
</g>
</svg>
